<?xml version="1.0" encoding="UTF-8"?>
<svg width="165px" height="152px" viewBox="0 0 165 152" version="1.1" xmlns="http://www.w3.org/2000/svg" xmlns:xlink="http://www.w3.org/1999/xlink">
    <title>Group</title>
    <defs>
        <path d="M51.6710991,151.936298 L51.6595965,151.935586 C50.8911327,151.887834 50.1301324,151.813811 49.3775619,151.714442 C49.1246549,151.681052 48.8722517,151.64473 48.6208407,151.605571 C48.5639044,151.596702 48.5071969,151.587717 48.4505404,151.578587 C48.1801748,151.535021 47.9108774,151.488154 47.6427883,151.438045 C47.580921,151.426482 47.5188499,151.414694 47.4568443,151.402733 C47.1850061,151.350293 46.9145921,151.294553 46.6454834,151.235527 C46.5371333,151.211762 46.4288228,151.187425 46.3207277,151.162557 C46.2720651,151.151361 46.2238183,151.140145 46.1756148,151.128823 C46.0399657,151.096964 45.9041608,151.064144 45.7687075,151.030486 C45.745869,151.024811 45.7232454,151.019163 45.7006317,151.013492 C45.4544606,150.95176 45.2093178,150.887222 44.9653816,150.819948 C44.7191003,150.752027 44.4741933,150.681362 44.2305543,150.607951 C43.9746617,150.530851 43.719791,150.450598 43.466369,150.36735 C43.4263649,150.35421 43.3858415,150.34081 43.3453553,150.327334 L43.2514976,150.295932 C43.2013958,150.279085 43.1513516,150.26212 43.1013651,150.245039 C42.8676001,150.165158 42.6346732,150.082563 42.4030533,149.997435 C42.298401,149.958973 42.1939559,149.91997 42.0897814,149.880454 C42.0299986,149.857775 41.9706672,149.835067 41.9114244,149.812193 C41.82498,149.778817 41.7382414,149.744895 41.6516956,149.710616 C41.5952124,149.688243 41.5393047,149.665916 41.4834784,149.643441 C41.2273554,149.540332 40.9724737,149.433887 40.719361,149.324345 C40.6673839,149.301852 40.6150863,149.279054 40.5628649,149.256124 C40.4945792,149.22614 40.4268548,149.196122 40.35926,149.165882 C40.2716484,149.126689 40.184028,149.087018 40.0966288,149.046975 C40.0549119,149.027862 40.0132143,149.008649 39.9715674,148.989352 C39.8626277,148.938874 39.7540383,148.887817 39.6458002,148.836184 C39.5812138,148.805374 39.51677,148.774368 39.4524522,148.743157 C39.3764642,148.706283 39.3007639,148.669179 39.2252405,148.631793 C39.1708504,148.60487 39.1161131,148.577579 39.0614695,148.55014 C38.9688739,148.503642 38.8769401,148.45692 38.7852761,148.409777 C38.735786,148.384325 38.6860471,148.358581 38.6363884,148.332712 C38.5442143,148.284696 38.4526029,148.236406 38.3612687,148.187696 C38.3033043,148.156783 38.2452297,148.125581 38.1872684,148.094208 C38.1089497,148.051817 38.0310146,148.009213 37.9532871,147.966301 C37.8898956,147.931305 37.8265249,147.896038 37.7632939,147.860568 C37.6731722,147.810011 37.5835449,147.759161 37.4942027,147.707901 C37.4602536,147.688424 37.4258921,147.668624 37.3915731,147.648765 C37.2975627,147.59436 37.2043318,147.539774 37.1114194,147.484741 C37.0405279,147.442752 36.969431,147.400267 36.8985232,147.35752 C36.8393751,147.321862 36.7804458,147.286075 36.7216484,147.250108 C36.6263717,147.191824 36.5316082,147.13317 36.4371936,147.074046 C36.3921876,147.045863 36.3472036,147.017536 36.3022996,146.989103 C36.2486121,146.955109 36.1949619,146.920913 36.1414269,146.886564 C36.0502213,146.828045 35.95939,146.769111 35.8688961,146.709739 C35.8098796,146.671018 35.751129,146.632192 35.6925221,146.593181 C35.6280963,146.550299 35.5634685,146.506939 35.4990176,146.463354 C35.4390661,146.42281 35.3797297,146.382389 35.3205451,146.341778 C35.2400003,146.286509 35.1596512,146.230828 35.0795864,146.174796 C35.0166525,146.130754 34.9535872,146.086276 34.8907004,146.041581 C34.8412058,146.006403 34.7919322,145.97117 34.7427692,145.935803 C34.5322323,145.784345 34.3237702,145.630466 34.1173832,145.474177 C34.0595638,145.430393 34.0019221,145.386431 33.9444443,145.342281 C33.8747495,145.288747 33.8050765,145.234766 33.7356478,145.180509 C33.6845984,145.140614 33.6339853,145.10081 33.5835034,145.060859 C33.5138542,145.005741 33.4441829,144.950123 33.374765,144.894226 C33.3115256,144.843304 33.2485348,144.79218 33.1857555,144.740825 C33.1216074,144.688351 33.0575439,144.635523 32.9937038,144.582454 C32.9426567,144.540019 32.8919769,144.497619 32.8414394,144.455067 C32.7714253,144.396118 32.7013859,144.336622 32.631624,144.276834 C32.5831419,144.235283 32.5348616,144.19365 32.4867156,144.151877 C32.4095743,144.084946 32.3328691,144.017737 32.2565109,143.950172 C32.2167843,143.915021 32.1768101,143.879469 32.1369319,143.843819 C32.0740096,143.787567 32.0117109,143.731422 31.9496497,143.675038 C31.8750907,143.607301 31.8006767,143.539037 31.7266102,143.47043 C31.6799917,143.427248 31.6332933,143.383727 31.5867345,143.340069 C31.5409317,143.297118 31.495608,143.254362 31.4504182,143.211477 C31.3713089,143.136403 31.2922879,143.060622 31.2136839,142.984443 C31.1626974,142.93503 31.1119461,142.885508 31.0613709,142.835821 C31.0034907,142.778958 30.9456015,142.72164 30.8879462,142.664104 C30.8113387,142.587658 30.7348431,142.510521 30.6587671,142.433001 C30.6456737,142.419659 30.6326536,142.406368 30.6196458,142.393065 C30.5358535,142.307374 30.4527286,142.22138 30.3701183,142.134925 C30.3328042,142.095874 30.2957098,142.056851 30.2587202,142.017735 C30.2000512,141.955695 30.1413245,141.893076 30.0828659,141.830223 C30.0122711,141.754317 29.9425843,141.678637 29.8732858,141.602622 C29.8465501,141.573296 29.8196176,141.543639 29.7927443,141.513931 C29.7272352,141.441511 29.6623866,141.369139 29.5978882,141.296472 C29.5443209,141.236121 29.4909464,141.17551 29.4378155,141.114697 C29.3921169,141.062391 29.3467237,141.01008 29.3015105,140.957621 C29.2457375,140.892912 29.189971,140.827662 29.1344829,140.762186 C29.083923,140.702525 29.0337637,140.642879 28.9838353,140.583048 C28.9395285,140.529955 28.8953203,140.476614 28.8512954,140.423128 C28.7872647,140.345337 28.7236318,140.267251 28.6603896,140.188861 C28.6347884,140.157127 28.609349,140.125465 28.5839733,140.093755 C28.5119913,140.003802 28.4405006,139.913425 28.369527,139.822655 C28.3281797,139.769776 28.286813,139.716511 28.2456243,139.663112 C28.2012159,139.605538 28.1570682,139.547879 28.1131279,139.490066 C28.090947,139.460882 28.0688828,139.431744 28.0468713,139.402566 L27.8763568,139.174332 C27.8511072,139.140205 27.8259291,139.106025 27.8008228,139.071794 C27.7623173,139.019291 27.724252,138.967041 27.686354,138.914672 C27.6443607,138.856644 27.6024109,138.798243 27.560669,138.739695 C27.4980573,138.651874 27.4358484,138.56363 27.3741118,138.475057 C27.3425091,138.429715 27.3112962,138.384673 27.2802053,138.339547 C27.24496,138.288393 27.209598,138.236729 27.1743959,138.184955 C27.025735,137.966304 26.8801377,137.746029 26.737437,137.52386 C26.700114,137.465753 26.6629704,137.407486 26.6260261,137.34909 C26.5818454,137.279257 26.5379291,137.209206 26.4942995,137.138972 C26.4542311,137.074471 26.414435,137.009865 26.3748816,136.945106 C26.3344076,136.878838 26.2943721,136.812717 26.2545898,136.746438 C26.115617,136.514918 25.9794133,136.280911 25.8463668,136.045026 C25.8230332,136.003654 25.8002298,135.963 25.7775202,135.922291 C25.7463654,135.866445 25.7152062,135.810165 25.6842265,135.753781 C25.5675825,135.541485 25.4534948,135.327731 25.3419875,135.11253 C25.2223795,134.881708 25.1054445,134.648612 24.9915419,134.413888 C24.8922524,134.209283 24.7951486,134.003183 24.7003868,133.795874 C24.6729511,133.73585 24.6459777,133.676316 24.6191975,133.616684 C24.5822879,133.534498 24.5457069,133.452036 24.5094958,133.369388 C24.4157309,133.155392 24.3242276,132.939619 24.2352508,132.722626 C24.0410134,132.248945 23.8587068,131.769145 23.6888173,131.283877 C23.6435946,131.1547 23.5993268,131.025361 23.5559426,130.895642 C23.4871389,130.689919 23.4205456,130.483203 23.3562027,130.275557 C23.2861743,130.049573 23.2187125,129.82214 23.1539594,129.593637 C23.086196,129.354516 23.0213656,129.114092 22.959545,128.872533 C22.945706,128.818457 22.932059,128.764489 22.9185624,128.710465 C22.7769235,128.143528 22.651813,127.570247 22.5437904,126.991284 C22.5246337,126.888618 22.5059521,126.785419 22.4878145,126.682043 C22.4505152,126.469425 22.4156194,126.256728 22.3830354,126.043311 C22.3687278,125.949612 22.3547909,125.855248 22.3413067,125.760746 C22.1471946,124.400242 22.0469281,123.011353 22.0469281,121.6 L22.0510896,122.097702 C22.0718476,123.33819 22.1700656,124.560623 22.3413067,125.760746 C22.3547389,125.85489 22.3686622,125.949171 22.3830354,126.043311 L22.3413067,125.760746 C22.3853394,126.069344 22.4342005,126.376467 22.4878145,126.682043 C22.5058511,126.784858 22.5245497,126.888161 22.5437904,126.991284 L22.4878145,126.682043 C22.6078536,127.366212 22.7517184,128.042623 22.9185624,128.710465 C22.9321005,128.764653 22.9457478,128.818621 22.959545,128.872533 L22.9185624,128.710465 C22.9925355,129.006564 23.0710258,129.300978 23.1539594,129.593637 C23.218705,129.82211 23.2861189,130.049385 23.3562027,130.275557 C23.4206154,130.483419 23.4871687,130.690007 23.5559426,130.895642 C23.5993606,131.025461 23.6436501,131.154862 23.6888173,131.283877 C23.8586147,131.768894 24.0409059,132.248668 24.2352508,132.722626 C24.3242401,132.939642 24.4156252,133.15514 24.5094958,133.369388 C24.5458491,133.452356 24.5823403,133.534614 24.6191975,133.616684 L24.5094958,133.369388 C24.5720266,133.512108 24.6356604,133.654273 24.7003868,133.795874 L24.6191975,133.616684 C24.7394393,133.884429 24.8635769,134.150186 24.9915419,134.413888 C25.105431,134.648578 25.2222209,134.881389 25.3419875,135.11253 C25.4537117,135.328138 25.5677005,135.5417 25.6842265,135.753781 C25.7151361,135.810038 25.7462392,135.866217 25.7775202,135.922291 L25.6842265,135.753781 C25.7377394,135.851176 25.7917875,135.948259 25.8463668,136.045026 L25.7775202,135.922291 C25.93222,136.199604 26.0912724,136.474348 26.2545898,136.746438 C26.2946575,136.813189 26.334644,136.879226 26.3748816,136.945106 L26.2545898,136.746438 C26.3335006,136.877906 26.4134072,137.008753 26.4942995,137.138972 L26.3748816,136.945106 C26.4575401,137.080439 26.5412586,137.215104 26.6260261,137.34909 L26.4942995,137.138972 C26.5743824,137.267888 26.6554314,137.396187 26.737437,137.52386 L26.6260261,137.34909 C26.8042146,137.630742 26.9870384,137.909396 27.1743959,138.184955 C27.2093611,138.236382 27.2447036,138.28802 27.2802053,138.339547 L27.1743959,138.184955 C27.2404066,138.282041 27.30698,138.378743 27.3741118,138.475057 L27.2802053,138.339547 C27.3726184,138.473678 27.4661102,138.607064 27.560669,138.739695 L27.3741118,138.475057 C27.4768891,138.622511 27.5809752,138.769054 27.686354,138.914672 L27.560669,138.739695 C27.6399722,138.850928 27.7200258,138.96163 27.8008228,139.071794 L27.686354,138.914672 C27.7834574,139.048854 27.8816585,139.182251 27.9809448,139.314849 L27.8008228,139.071794 C27.9037235,139.212095 28.00783,139.351524 28.1131279,139.490066 L27.9809448,139.314849 C28.0683334,139.431557 28.1565627,139.547648 28.2456243,139.663112 L28.1131279,139.490066 C28.1978259,139.601505 28.2832948,139.712371 28.369527,139.822655 L28.2456243,139.663112 C28.3571088,139.807646 28.4698974,139.951199 28.5839733,140.093755 L28.369527,139.822655 C28.4655384,139.945447 28.5624961,140.067519 28.6603896,140.188861 L28.5839733,140.093755 C28.6723113,140.204146 28.7614212,140.31394 28.8512954,140.423128 L28.6603896,140.188861 C28.7670973,140.321128 28.874917,140.452528 28.9838353,140.583048 L28.8512954,140.423128 C28.9448657,140.536807 29.0392645,140.649829 29.1344829,140.762186 L28.9838353,140.583048 C29.0887125,140.708726 29.1946082,140.833587 29.3015105,140.957621 L29.1344829,140.762186 C29.2346894,140.88043 29.3358036,140.997937 29.4378155,141.114697 L29.3015105,140.957621 C29.3994611,141.071269 29.4982568,141.184222 29.5978882,141.296472 L29.4378155,141.114697 C29.5549468,141.248764 29.6732616,141.381847 29.7927443,141.513931 L29.5978882,141.296472 C29.6889909,141.399113 29.7807925,141.501165 29.8732858,141.602622 L29.7927443,141.513931 C29.8887009,141.620008 29.9854107,141.725442 30.0828659,141.830223 L29.8732858,141.602622 C30.0004622,141.742124 30.1289464,141.880501 30.2587202,142.017735 L30.0828659,141.830223 C30.1779103,141.932413 30.2736635,142.033982 30.3701183,142.134925 L30.2587202,142.017735 C30.3779451,142.143814 30.4982584,142.268929 30.6196458,142.393065 L30.3701183,142.134925 C30.4656488,142.234901 30.5618675,142.334262 30.6587671,142.433001 L30.6196458,142.393065 C30.7085055,142.483937 30.7979408,142.574286 30.8879462,142.664104 L30.6587671,142.433001 C30.7916932,142.56845 30.9259006,142.70273 31.0613709,142.835821 L30.8879462,142.664104 C30.9957114,142.771646 31.1042939,142.878429 31.2136839,142.984443 L31.0613709,142.835821 C31.1899215,142.962114 31.3196093,143.087338 31.4504182,143.211477 L31.2136839,142.984443 C31.3370121,143.103966 31.4613669,143.222512 31.5867345,143.340069 L31.4504182,143.211477 C31.5419352,143.298327 31.634001,143.384646 31.7266102,143.47043 L31.5867345,143.340069 C31.7067816,143.452636 31.8277574,143.564297 31.9496497,143.675038 L31.7266102,143.47043 C31.8622246,143.596048 31.9990042,143.720517 32.1369319,143.843819 L31.9496497,143.675038 C32.0513017,143.767391 32.153591,143.859104 32.2565109,143.950172 L32.1369319,143.843819 C32.2527207,143.94733 32.3693187,144.050019 32.4867156,144.151877 L32.2565109,143.950172 C32.3806357,144.060002 32.5056774,144.168894 32.631624,144.276834 L32.4867156,144.151877 C32.6041606,144.253776 32.7224052,144.354843 32.8414394,144.455067 L32.631624,144.276834 C32.7515011,144.379572 32.8721979,144.481449 32.9937038,144.582454 L32.8414394,144.455067 C32.9554896,144.551096 33.0702646,144.646351 33.1857555,144.740825 L32.9937038,144.582454 C33.119856,144.687322 33.2468804,144.791249 33.374765,144.894226 L33.1857555,144.740825 C33.3174122,144.848523 33.4499992,144.955205 33.5835034,145.060859 L33.374765,144.894226 C33.4943107,144.990488 33.6146082,145.085919 33.7356478,145.180509 L33.5835034,145.060859 C33.7030843,145.155494 33.8234011,145.249304 33.9444443,145.342281 L33.7356478,145.180509 C33.8620868,145.279319 33.9893356,145.377212 34.1173832,145.474177 L33.9444443,145.342281 C34.2071628,145.544081 34.4733034,145.741953 34.7427692,145.935803 C34.7919384,145.971174 34.8412642,146.006445 34.8907004,146.041581 L34.7427692,145.935803 C34.8544725,146.01616 34.9667472,146.095827 35.0795864,146.174796 L34.8907004,146.041581 C35.0330716,146.142768 35.1763579,146.242838 35.3205451,146.341778 L35.0795864,146.174796 C35.218545,146.272044 35.3583597,146.368234 35.4990176,146.463354 L35.3205451,146.341778 C35.4438811,146.426409 35.5678764,146.510213 35.6925221,146.593181 L35.4990176,146.463354 C35.6216721,146.546299 35.7449678,146.62843 35.8688961,146.709739 L35.6925221,146.593181 C35.8412362,146.69217 35.9908761,146.789969 36.1414269,146.886564 L35.8688961,146.709739 C36.0125187,146.803969 36.1569909,146.897094 36.3022996,146.989103 L36.1414269,146.886564 C36.2396296,146.949572 36.3382199,147.012067 36.4371936,147.074046 L36.3022996,146.989103 C36.4413208,147.077131 36.5811076,147.164136 36.7216484,147.250108 L36.4371936,147.074046 C36.5900606,147.169774 36.7438422,147.26427 36.8985232,147.35752 L36.7216484,147.250108 C36.850937,147.329196 36.9808637,147.40741 37.1114194,147.484741 L36.8985232,147.35752 C37.0618762,147.455997 37.2262321,147.553085 37.3915731,147.648765 L37.1114194,147.484741 C37.2384214,147.559966 37.3660186,147.634356 37.4942027,147.707901 L37.3915731,147.648765 C37.5149342,147.720152 37.6388436,147.790755 37.7632939,147.860568 L37.4942027,147.707901 C37.6464081,147.795229 37.7994409,147.881367 37.9532871,147.966301 L37.7632939,147.860568 C37.9039317,147.939461 38.0452602,148.017345 38.1872684,148.094208 L37.9532871,147.966301 C38.0886544,148.041034 38.2246514,148.114835 38.3612687,148.187696 L38.1872684,148.094208 C38.3362312,148.174836 38.485942,148.254342 38.6363884,148.332712 L38.3612687,148.187696 C38.5019503,148.262724 38.6432895,148.336754 38.7852761,148.409777 L38.6363884,148.332712 C38.777439,148.406189 38.9191361,148.478668 39.0614695,148.55014 L38.7852761,148.409777 C38.9312505,148.484851 39.077909,148.55886 39.2252405,148.631793 L39.0614695,148.55014 C39.1912705,148.615319 39.3216007,148.679661 39.4524522,148.743157 L39.2252405,148.631793 C39.3648262,148.700892 39.505016,148.769025 39.6458002,148.836184 L39.4524522,148.743157 C39.6245942,148.82669 39.7976385,148.908761 39.9715674,148.989352 L39.6458002,148.836184 C39.795409,148.907552 39.945689,148.977819 40.0966288,149.046975 L39.9715674,148.989352 C40.100316,149.049008 40.2295493,149.107854 40.35926,149.165882 L40.0966288,149.046975 C40.2513517,149.117864 40.4067679,149.187584 40.5628649,149.256124 L40.35926,149.165882 C40.4788894,149.219401 40.598925,149.272223 40.719361,149.324345 L40.5628649,149.256124 C40.8671791,149.389745 41.1740809,149.51888 41.4834784,149.643441 C41.5397865,149.666109 41.5957007,149.688437 41.6516956,149.710616 L41.4834784,149.643441 C41.6256034,149.70066 41.7682551,149.756913 41.9114244,149.812193 L41.6516956,149.710616 C41.7971824,149.76824 41.9432142,149.824856 42.0897814,149.880454 L41.9114244,149.812193 C42.0746324,149.87521 42.2385131,149.936962 42.4030533,149.997435 L42.0897814,149.880454 C42.4242253,150.007319 42.7614574,150.128883 43.1013651,150.245039 C43.169826,150.268432 43.2379622,150.291462 43.3062046,150.314274 L43.1013651,150.245039 C43.2226939,150.2865 43.3443636,150.327272 43.466369,150.36735 L43.3062046,150.314274 C43.6122115,150.416566 43.9203552,150.514484 44.2305543,150.607951 C44.4744967,150.681451 44.7193253,150.752091 44.9653816,150.819948 C45.2091739,150.887183 45.4543187,150.951723 45.7006317,151.013492 C45.7234071,151.019204 45.7460524,151.024857 45.7687075,151.030486 L45.7006317,151.013492 C45.858483,151.053077 46.016814,151.091524 46.1756148,151.128823 L45.7687075,151.030486 C45.9520751,151.07605 46.1360871,151.120079 46.3207277,151.162557 L46.1756148,151.128823 C46.3317866,151.165504 46.4884127,151.201075 46.6454834,151.235527 L46.3207277,151.162557 C46.696869,151.249092 47.0756191,151.329193 47.4568443,151.402733 C47.5186489,151.414656 47.5806862,151.426437 47.6427883,151.438045 L47.4568443,151.402733 C47.7862569,151.466278 48.1175177,151.524923 48.4505404,151.578587 C48.5073189,151.587736 48.5640545,151.596726 48.6208407,151.605571 L48.4505404,151.578587 C48.7580677,151.628142 49.0670974,151.673449 49.3775619,151.714442 C50.1305904,151.813861 50.8915969,151.887874 51.6600667,151.935615 C52.1749036,151.967606 52.6935667,151.987813 53.2152945,151.995927 C52.6974485,151.987874 52.1826217,151.967906 51.6710991,151.936298 Z M22.0490327,121.245995 L11.0234641,110.545455 C11.0234641,87.6507413 30.1480343,69.0909091 53.7393873,69.0909091 C77.3307403,69.0909091 96.4553105,87.6507413 96.4553105,110.545455 C96.4553105,133.211221 77.7113192,151.62837 54.4457732,151.994446 L54.3035565,151.99528 C54.1158933,151.998422 53.9278324,152 53.7393873,152 L54.0334641,151.997909 L54.0157418,151.998868 L54.0157418,151.998868 L53.7393873,152 L54.0334641,151.997909 L54.1264641,151.995909 L54.2464641,151.994909 L54.3035565,151.99528 C71.5465343,151.706562 85.4318465,138.208696 85.4318465,121.6 C85.4318465,104.810544 71.2426492,91.2 53.7393873,91.2 C36.411158,91.2 22.3310435,104.539694 22.051174,121.09728 L22.0469281,121.6 L22.0469281,121.6 C22.0469281,121.48184 22.0476309,121.363837 22.0490327,121.245995 Z" id="path-1"></path>
    </defs>
    <g id="Page-1" stroke="none" stroke-width="1" fill="none" fill-rule="evenodd">
        <g id="Artboard" transform="translate(-276.000000, -1120.000000)">
            <g id="Group" transform="translate(276.000000, 1120.000000)">
                <g id="Group-2" transform="translate(64.000000, 0.000000)">
                    <path d="M11.0234641,17.9595825 L19.9047453,32.4290907 C21.3054724,34.711175 22.0469281,37.3365558 22.0469281,40.0142311 L22.0469281,135.449263 C22.0469281,141.537354 17.1115551,146.472727 11.0234641,146.472727 C4.93537297,146.472727 -1.03078071e-15,141.537354 0,135.449263 L0,21.072811 C-8.5814576e-17,17.785972 2.66450946,15.1214626 5.95134845,15.1214626 C8.02046553,15.1214626 9.94108175,16.1961501 11.0234641,17.9595825 Z" id="Rectangle" fill="#A9AFFF"></path>
                    <path d="M67.4004572,20.1686832 C72.4659344,20.1778528 76.5700315,24.2819499 76.5792011,29.3474272 L76.6840212,87.252269 C76.693148,92.2941027 72.6133329,96.3887152 67.5714992,96.397842 C67.5604821,96.397862 67.5494651,96.397862 67.5384481,96.397842 C62.4729708,96.3886724 58.3688737,92.2845753 58.3597042,87.2190981 L58.2548841,29.3142563 C58.2457573,24.2724225 62.3255724,20.17781 67.3674061,20.1686832 C67.3784231,20.1686633 67.3894402,20.1686633 67.4004572,20.1686832 Z" id="Rectangle" fill="#373EAB" transform="translate(67.469453, 58.283263) rotate(45.000000) translate(-67.469453, -58.283263) "></path>
                    <path d="M49.6214631,20.9430354 C54.6869404,20.952205 58.7910375,25.0563021 58.8002071,30.1217794 L58.9050272,88.0266212 C58.9141539,93.0684549 54.8343389,97.1630674 49.7925051,97.1721942 C49.7814881,97.1722142 49.7704711,97.1722142 49.7594541,97.1721942 C44.6939768,97.1630246 40.5898797,93.0589276 40.5807101,87.9934503 L40.4758901,30.0886085 C40.4667633,25.0467748 44.5465784,20.9521622 49.5884121,20.9430354 C49.5994291,20.9430155 49.6104461,20.9430155 49.6214631,20.9430354 Z" id="Rectangle" fill="#A9AFFF" transform="translate(49.690459, 59.057615) rotate(45.000000) translate(-49.690459, -59.057615) "></path>
                    <mask id="mask-2" fill="white">
                        <use xlink:href="#path-1"></use>
                    </mask>
                    <use id="Combined-Shape" fill="#A9AFFF" xlink:href="#path-1"></use>
                </g>
                <ellipse id="Oval" fill="#A9AFFF" cx="32" cy="104" rx="32" ry="30"></ellipse>
            </g>
        </g>
    </g>
</svg>